<?xml version="1.0" encoding="utf-8"?>
<!-- Generator: Adobe Illustrator 22.1.0, SVG Export Plug-In . SVG Version: 6.00 Build 0)  -->
<svg version="1.1" id="Layer_1" xmlns="http://www.w3.org/2000/svg" xmlns:xlink="http://www.w3.org/1999/xlink" x="0px" y="0px"
	 viewBox="0 0 36.9 36.9" style="enable-background:new 0 0 36.9 36.9;" xml:space="preserve">
<style type="text/css">
	.st0{fill:#999999;}
	.st1{fill:none;stroke:#999999;stroke-width:0.75;stroke-miterlimit:10;}
</style>
<path class="st0" d="M23.6,15c-0.5,0.3-1,0.6-1.5,0.7c-0.8-0.9-2.2-1-3.1-0.2c-0.5,0.4-0.8,1-0.7,1.7v0.5c-1.7,0-3.4-0.8-4.4-2.2
	c0,0-1.9,4.4,2.4,6.3c-1,0.7-2.2,1-3.4,1c4.4,2.4,9.7,0,9.7-5.6c0-0.1,0-0.3,0-0.4C23.1,16.3,23.4,15.7,23.6,15z"/>
<circle class="st1" cx="18.4" cy="18.4" r="11.3"/>
</svg>
